<svg width="1833" height="8519" viewBox="0 0 1833 8519" fill="none" xmlns="http://www.w3.org/2000/svg">
<rect opacity="0.6" x="160" y="8355" width="6" height="6" rx="3" stroke="url(#paint0_linear_621_23)" stroke-width="2"/>
<rect opacity="0.6" x="716" y="8431" width="6" height="6" rx="3" stroke="url(#paint1_linear_621_23)" stroke-width="2"/>
<path d="M1533.92 8515.86L1536.79 8489.15L1562.73 8492.64L1565.6 8465.92L1592.31 8468.79" stroke="#EFAB18" stroke-width="5" stroke-linecap="round" stroke-linejoin="round"/>
<g filter="url(#filter0_f_621_23)">
<path d="M1481 879C1481 817.144 1531.14 767 1593 767H1942C2003.86 767 2054 817.144 2054 879V1228C2054 1289.86 2003.86 1340 1942 1340H1593C1531.14 1340 1481 1289.86 1481 1228V879Z" fill="url(#paint2_linear_621_23)" fill-opacity="0.17"/>
</g>
<path d="M105.399 42.4336C105.825 41.4487 107.044 41.0969 107.929 41.7036L120.493 50.3152C121.036 50.6874 121.316 51.3388 121.213 51.989L118.519 68.9858C118.345 70.0863 117.179 70.7268 116.157 70.2844L98.5105 62.6485C97.6459 62.2743 97.2482 61.2699 97.6223 60.4052L105.399 42.4336Z" stroke="#EFAB18" stroke-width="6"/>
<path d="M1573.4 1915.43C1573.83 1914.45 1575.04 1914.1 1575.93 1914.7L1588.49 1923.32C1589.04 1923.69 1589.32 1924.34 1589.21 1924.99L1586.52 1941.99C1586.34 1943.09 1585.18 1943.73 1584.16 1943.28L1566.51 1935.65C1565.65 1935.27 1565.25 1934.27 1565.62 1933.41L1573.4 1915.43Z" stroke="#21D4DF" stroke-width="6"/>
<rect x="0.5" y="173.5" width="6" height="6" rx="3" stroke="url(#paint3_linear_621_23)"/>
<rect opacity="0.6" x="594.5" y="426.5" width="6" height="6" rx="3" stroke="url(#paint4_linear_621_23)"/>
<rect opacity="0.6" x="552.5" y="104.5" width="6" height="6" rx="3" stroke="url(#paint5_linear_621_23)"/>
<rect opacity="0.6" x="203" y="420" width="6" height="6" rx="3" stroke="url(#paint6_linear_621_23)" stroke-width="2"/>
<rect opacity="0.6" x="296" y="14" width="6" height="6" rx="3" stroke="url(#paint7_linear_621_23)" stroke-width="2"/>
<rect opacity="0.6" x="833" y="297" width="6" height="6" rx="3" stroke="url(#paint8_linear_621_23)" stroke-width="2"/>
<rect opacity="0.6" x="1001" y="102" width="6" height="6" rx="3" stroke="url(#paint9_linear_621_23)" stroke-width="2"/>
<rect opacity="0.6" x="729" y="1" width="6" height="6" rx="3" stroke="url(#paint10_linear_621_23)" stroke-width="2"/>
<rect opacity="0.6" x="1485" y="559" width="6" height="6" rx="3" stroke="url(#paint11_linear_621_23)" stroke-width="2"/>
<rect opacity="0.6" x="1748" y="375" width="6" height="6" rx="3" stroke="url(#paint12_linear_621_23)" stroke-width="2"/>
<rect opacity="0.6" x="177" y="122" width="6" height="6" rx="3" stroke="url(#paint13_linear_621_23)" stroke-width="2"/>
<rect opacity="0.6" x="464" y="47" width="6" height="6" rx="3" stroke="url(#paint14_linear_621_23)" stroke-width="2"/>
<rect opacity="0.6" x="1619" y="153" width="6" height="6" rx="3" stroke="url(#paint15_linear_621_23)" stroke-width="2"/>
<path d="M284.336 487.332C281.581 492.385 275.504 494.859 269.885 492.916C264.265 490.973 261.016 485.274 261.97 479.599L284.336 487.332Z" stroke="#D0E6A5" stroke-width="4"/>
<path opacity="0.7" d="M642.521 43.8352C641.269 38.2185 644.215 32.3553 649.724 30.1189C655.234 27.8826 661.432 30.0341 664.449 34.9345L642.521 43.8352Z" stroke="#4E92F9" stroke-width="4"/>
<path d="M503.036 433.619L507.392 434.55C510.855 435.29 512.38 439.375 510.248 442.203C508.117 445.031 509.641 449.116 513.104 449.856L513.323 449.903C516.836 450.653 518.427 454.761 516.336 457.682L511.784 464.04" stroke="#EFAB18" stroke-width="2" stroke-linecap="round" stroke-linejoin="round"/>
<path d="M1662.81 545.127L1672.69 546.772C1680.53 548.081 1684.37 557.094 1679.88 563.659C1675.38 570.224 1679.22 579.237 1687.07 580.546L1687.56 580.628C1695.52 581.956 1699.51 591.014 1695.11 597.784L1694.52 598.695C1690.1 605.503 1693.63 614.644 1701.48 616.71L1710.1 618.977" stroke="#EFAB18" stroke-width="5" stroke-linecap="round" stroke-linejoin="round"/>
<path d="M229.442 7035.34C230.366 7036.04 230.42 7037.41 229.554 7038.18L217.266 7049.15C216.735 7049.62 215.978 7049.75 215.322 7049.47L198.168 7042.25C197.057 7041.79 196.686 7040.4 197.415 7039.44L209.993 7022.88C210.609 7022.07 211.767 7021.91 212.578 7022.53L229.442 7035.34Z" stroke="#4E92F9" stroke-width="6.48879"/>
<defs>
<filter id="filter0_f_621_23" x="1227" y="513" width="1081" height="1081" filterUnits="userSpaceOnUse" color-interpolation-filters="sRGB">
<feFlood flood-opacity="0" result="BackgroundImageFix"/>
<feBlend mode="normal" in="SourceGraphic" in2="BackgroundImageFix" result="shape"/>
<feGaussianBlur stdDeviation="127" result="effect1_foregroundBlur_621_23"/>
</filter>
<linearGradient id="paint0_linear_621_23" x1="159" y1="8354" x2="168.657" y2="8358.05" gradientUnits="userSpaceOnUse">
<stop stop-color="#C381DB"/>
<stop offset="1" stop-color="#4E92F9"/>
</linearGradient>
<linearGradient id="paint1_linear_621_23" x1="715" y1="8430" x2="724.657" y2="8434.05" gradientUnits="userSpaceOnUse">
<stop stop-color="#C381DB"/>
<stop offset="1" stop-color="#4E92F9"/>
</linearGradient>
<linearGradient id="paint2_linear_621_23" x1="1767.5" y1="767" x2="1898.68" y2="1283.33" gradientUnits="userSpaceOnUse">
<stop stop-color="#FFBA27"/>
<stop offset="1" stop-color="#FFDE98"/>
</linearGradient>
<linearGradient id="paint3_linear_621_23" x1="0" y1="173" x2="8.44953" y2="176.546" gradientUnits="userSpaceOnUse">
<stop stop-color="#C381DB"/>
<stop offset="1" stop-color="#4E92F9"/>
</linearGradient>
<linearGradient id="paint4_linear_621_23" x1="594" y1="426" x2="602.45" y2="429.546" gradientUnits="userSpaceOnUse">
<stop stop-color="#C381DB"/>
<stop offset="1" stop-color="#4E92F9"/>
</linearGradient>
<linearGradient id="paint5_linear_621_23" x1="552" y1="104" x2="560.45" y2="107.546" gradientUnits="userSpaceOnUse">
<stop stop-color="#C381DB"/>
<stop offset="1" stop-color="#4E92F9"/>
</linearGradient>
<linearGradient id="paint6_linear_621_23" x1="202" y1="419" x2="211.657" y2="423.053" gradientUnits="userSpaceOnUse">
<stop stop-color="#C381DB"/>
<stop offset="1" stop-color="#4E92F9"/>
</linearGradient>
<linearGradient id="paint7_linear_621_23" x1="295" y1="13" x2="304.657" y2="17.0527" gradientUnits="userSpaceOnUse">
<stop stop-color="#C381DB"/>
<stop offset="1" stop-color="#4E92F9"/>
</linearGradient>
<linearGradient id="paint8_linear_621_23" x1="832" y1="296" x2="841.657" y2="300.053" gradientUnits="userSpaceOnUse">
<stop stop-color="#C381DB"/>
<stop offset="1" stop-color="#4E92F9"/>
</linearGradient>
<linearGradient id="paint9_linear_621_23" x1="1000" y1="101" x2="1009.66" y2="105.053" gradientUnits="userSpaceOnUse">
<stop stop-color="#C381DB"/>
<stop offset="1" stop-color="#4E92F9"/>
</linearGradient>
<linearGradient id="paint10_linear_621_23" x1="728" y1="0" x2="737.657" y2="4.05267" gradientUnits="userSpaceOnUse">
<stop stop-color="#C381DB"/>
<stop offset="1" stop-color="#4E92F9"/>
</linearGradient>
<linearGradient id="paint11_linear_621_23" x1="1484" y1="558" x2="1493.66" y2="562.053" gradientUnits="userSpaceOnUse">
<stop stop-color="#C381DB"/>
<stop offset="1" stop-color="#4E92F9"/>
</linearGradient>
<linearGradient id="paint12_linear_621_23" x1="1747" y1="374" x2="1756.66" y2="378.053" gradientUnits="userSpaceOnUse">
<stop stop-color="#C381DB"/>
<stop offset="1" stop-color="#4E92F9"/>
</linearGradient>
<linearGradient id="paint13_linear_621_23" x1="176" y1="121" x2="185.657" y2="125.053" gradientUnits="userSpaceOnUse">
<stop stop-color="#C381DB"/>
<stop offset="1" stop-color="#4E92F9"/>
</linearGradient>
<linearGradient id="paint14_linear_621_23" x1="463" y1="46" x2="472.657" y2="50.0527" gradientUnits="userSpaceOnUse">
<stop stop-color="#C381DB"/>
<stop offset="1" stop-color="#4E92F9"/>
</linearGradient>
<linearGradient id="paint15_linear_621_23" x1="1618" y1="152" x2="1627.66" y2="156.053" gradientUnits="userSpaceOnUse">
<stop stop-color="#C381DB"/>
<stop offset="1" stop-color="#4E92F9"/>
</linearGradient>
</defs>
</svg>
